<svg width="1720" height="285" viewBox="0 0 1720 285" fill="none" xmlns="http://www.w3.org/2000/svg">
<path d="M284.504 258.302C280.955 270.764 269.57 279.36 256.612 279.36H243.938C231.202 279.36 219.957 271.051 216.216 258.877L198.266 200.449C189.885 173.167 151.278 173.127 142.841 200.393L124.726 258.933C120.968 271.079 109.736 279.36 97.0224 279.36H84.6468C71.704 279.36 60.328 270.784 56.7664 258.34L1.58498 65.5555C-3.71854 47.0268 10.3777 28.5752 29.6504 28.5752V28.5752C43.065 28.5752 54.8389 37.7756 57.9631 50.8212L70.303 102.349C77.2373 131.305 118.083 132.259 126.362 103.659L142.035 49.5119C145.625 37.1103 156.981 28.5752 169.892 28.5752H170.721C183.597 28.5752 194.931 37.0646 198.551 49.4207L214.757 104.73C223.118 133.262 263.882 132.233 270.793 103.316L283.338 50.8213C286.456 37.7769 298.116 28.5752 311.527 28.5752V28.5752C330.772 28.5752 344.672 46.986 339.402 65.4949L284.504 258.302Z" fill="#00DC82"/>
<path d="M450.665 285C432.125 285 415.714 281.24 401.432 273.72C387.151 266.201 375.876 255.046 367.608 240.257C359.59 225.468 355.581 207.546 355.581 186.491C355.581 153.654 363.599 128.338 379.634 110.541C395.92 92.4934 418.971 83.4697 448.786 83.4697C499.013 83.4697 527.54 111.916 534.367 168.809C536.275 184.711 522.994 197.77 506.978 197.77H437.445C421.627 197.77 407.079 211.637 415.261 225.174C416.583 227.361 418.112 229.381 419.848 231.234C427.364 239.255 437.637 243.265 450.665 243.265C460.437 243.265 470.584 242.012 481.107 239.505C484.4 238.663 487.633 237.738 490.808 236.732C502.277 233.097 515.233 238.182 519.55 249.412V249.412C523.493 259.669 518.747 271.326 508.311 274.769C502.061 276.831 495.624 278.612 489 280.112C475.721 283.371 462.942 285 450.665 285ZM451.467 163.555C468.705 163.555 484.74 146.202 472.774 133.793C472.671 133.686 472.568 133.581 472.463 133.476C466.701 127.21 458.182 124.077 446.907 124.077C435.883 124.077 427.239 127.335 420.975 133.852V133.852C408.787 146.046 424.057 163.555 441.298 163.555H451.467Z" fill="#00DC82"/>
<path d="M659.464 285C643.93 285 630.275 283.872 618.499 281.616C611.91 280.354 604.615 278.621 596.614 276.417C584.486 273.076 576.406 261.813 576.406 249.233V42.8517C576.406 28.7374 587.848 17.2955 601.962 17.2955V17.2955C616.076 17.2955 627.518 28.7374 627.518 42.8517V49.3184C627.518 70.2219 649.7 84.99 670.601 84.6188C671.395 84.6047 672.193 84.5976 672.993 84.5976C700.805 84.5976 722.227 92.9947 737.26 109.789C752.543 126.583 760.06 150.396 759.809 181.227C759.809 217.322 751.165 243.641 733.877 260.185C716.84 276.728 692.035 285 659.464 285ZM707.945 184.235C707.945 165.185 703.811 150.897 695.543 141.372C687.275 131.847 675.624 127.084 660.591 127.084C654.201 127.084 648.249 127.774 642.736 129.153C632.816 131.635 627.518 141.623 627.518 151.848V215.034C627.518 227.424 635.444 238.669 647.787 239.746C651.689 240.087 655.832 240.257 660.215 240.257C676.752 240.257 688.778 235.495 696.295 225.97C704.062 216.445 707.945 202.533 707.945 184.235Z" fill="#00DC82"/>
<path d="M895.738 134.228C919.29 141.497 937.706 150.521 950.985 161.299C964.515 171.827 971.279 187.243 971.279 207.546C971.279 222.084 967.772 235.119 960.756 246.649C953.741 258.179 943.092 267.329 928.811 274.096C914.78 280.613 897.743 283.872 877.699 283.872C864.419 283.872 850.639 282.243 836.358 278.984C828.059 276.945 819.93 274.567 811.969 271.851C802.454 268.604 797.999 257.949 801.714 248.607V248.607C805.625 238.772 816.989 234.342 826.98 237.836C832.526 239.775 838.158 241.459 843.874 242.889C855.901 245.897 867.175 247.401 877.699 247.401C892.982 247.401 904.883 244.393 913.402 238.377C921.921 232.361 926.18 223.839 926.18 212.81C926.18 205.541 923.8 199.4 919.039 194.387C914.53 189.373 908.642 185.363 901.376 182.355C894.36 179.096 883.962 174.96 870.182 169.947C854.648 164.683 841.995 159.545 832.224 154.532C822.452 149.518 814.059 142.375 807.043 133.1C800.278 123.575 796.896 111.168 796.896 95.8773C796.896 82.5924 800.529 70.5607 807.795 59.7823C815.061 48.7533 825.584 39.9802 839.364 33.4631C853.145 26.9459 869.305 23.6873 887.846 23.6873C901.125 23.6873 915.031 25.442 929.563 28.9512C937.969 30.8361 946.081 33.0984 953.9 35.7382C963.279 38.9043 967.548 49.4422 963.821 58.6121V58.6121C959.904 68.2501 948.732 72.5588 938.862 69.2712C933.518 67.4915 928.038 65.9579 922.422 64.6702C910.395 61.6623 898.87 60.1583 887.846 60.1583C874.316 60.1583 863.167 63.0409 854.397 68.8061C845.879 74.3206 841.619 81.8404 841.619 91.3654C841.619 99.1359 843.749 105.528 848.008 110.541C852.268 115.554 857.905 119.69 864.921 122.949C872.187 126.207 882.459 129.967 895.738 134.228Z" fill="#80EEC0"/>
<path d="M1095.83 285C1068.52 285 1046.6 276.478 1030.06 259.433C1013.78 242.137 1005.63 217.698 1005.63 186.115C1005.63 153.78 1013.27 128.964 1028.56 111.669C1043.84 94.1227 1065.64 85.3496 1093.95 85.3496C1122.77 85.3496 1144.19 94.7494 1158.22 113.549C1168.37 126.737 1174.79 144.17 1177.47 165.848C1179.42 181.584 1166.15 194.387 1150.3 194.387H1076.31C1060.46 194.387 1046.32 207.726 1052.27 222.423C1054.24 227.309 1056.86 231.624 1060.13 235.369C1068.9 245.145 1080.8 250.033 1095.83 250.033C1105.6 250.033 1115.75 248.654 1126.27 245.897C1130.97 244.585 1135.6 243.105 1140.16 241.459C1149.69 238.015 1160.6 242.272 1164.29 251.714V251.714C1167.64 260.287 1163.79 270.065 1155.16 273.272C1148 275.935 1140.62 278.215 1133.04 280.112C1120.01 283.371 1107.61 285 1095.83 285ZM1104.86 164.307C1121.97 164.307 1137.18 148.17 1127.35 134.151C1126.32 132.679 1125.21 131.326 1124.02 130.092C1117 122.823 1106.6 119.189 1092.82 119.189C1079.55 119.189 1069.27 122.698 1062.01 129.716C1060.81 130.876 1059.68 132.158 1058.62 133.563C1048.14 147.506 1063.51 164.307 1080.95 164.307H1104.86Z" fill="#80EEC0"/>
<path d="M1223.87 39.47C1223.87 28.054 1233.12 18.7995 1244.54 18.7995V18.7995C1255.96 18.7995 1265.21 28.054 1265.21 39.4699V258.69C1265.21 270.106 1255.96 279.36 1244.54 279.36V279.36C1233.12 279.36 1223.87 270.106 1223.87 258.69V39.47Z" fill="#80EEC0"/>
<path d="M1500.05 258.502C1500.05 270.022 1490.71 279.36 1479.19 279.36V279.36C1467.67 279.36 1458.33 270.022 1458.33 258.502V156.084C1458.33 140.068 1445.35 127.084 1429.33 127.084H1406.53C1390.51 127.084 1377.53 140.068 1377.53 156.084V258.502C1377.53 270.022 1368.19 279.36 1356.67 279.36V279.36C1345.15 279.36 1335.81 270.022 1335.81 258.502V142.118C1335.81 133.815 1329.08 127.084 1320.78 127.084V127.084C1312.48 127.084 1305.75 120.354 1305.75 112.051V106.962C1305.75 98.5561 1312.56 91.7414 1320.97 91.7414H1326.04C1331.64 91.7414 1336.19 87.1964 1336.19 81.5897V81.5897C1336.19 55.5211 1344.21 35.4683 1360.24 21.4314C1376.28 7.1438 1397.32 0 1423.38 0C1439.92 0 1455.33 1.75462 1469.61 5.26385C1476.03 6.72906 1481.74 8.2196 1486.75 9.73548C1495.66 12.4353 1499.83 22.0072 1497 30.8775V30.8775C1493.61 41.487 1481.64 47.0258 1470.89 44.1326C1467.92 43.3333 1464.74 42.5341 1461.34 41.7348C1448.56 38.7269 1435.91 37.2229 1423.38 37.2229C1410.85 37.2229 1400.08 40.9828 1391.06 48.5026C1382.04 56.0224 1377.53 66.9261 1377.53 81.2137V81.2137C1377.53 87.028 1382.24 91.7414 1388.06 91.7414H1471.05C1487.07 91.7414 1500.05 104.725 1500.05 120.741V258.502Z" fill="#80EEC0"/>
<path d="M1637.92 285C1610.61 285 1588.68 276.478 1572.15 259.433C1555.86 242.137 1547.72 217.698 1547.72 186.115C1547.72 153.78 1555.36 128.964 1570.64 111.669C1585.93 94.1227 1607.73 85.3496 1636.04 85.3496C1664.85 85.3496 1686.27 94.7494 1700.3 113.549C1710.46 126.737 1716.88 144.17 1719.56 165.848C1721.5 181.584 1708.24 194.387 1692.38 194.387H1655.39H1618.4C1602.55 194.387 1588.41 207.726 1594.35 222.423C1596.33 227.309 1598.95 231.624 1602.21 235.369C1610.98 245.145 1622.88 250.033 1637.92 250.033C1647.69 250.033 1657.84 248.654 1668.36 245.897C1673.06 244.585 1677.69 243.105 1682.25 241.459C1691.78 238.015 1702.69 242.272 1706.38 251.714V251.714C1709.73 260.287 1705.87 270.065 1697.25 273.272C1690.08 275.935 1682.71 278.215 1675.12 280.112C1662.1 283.371 1649.69 285 1637.92 285ZM1646.94 164.307C1664.06 164.307 1679.26 148.17 1669.44 134.151C1668.41 132.679 1667.29 131.326 1666.1 130.092C1659.09 122.823 1648.69 119.189 1634.91 119.189C1621.63 119.189 1611.36 122.698 1604.09 129.716C1602.89 130.876 1601.76 132.158 1600.71 133.563C1590.23 147.506 1605.59 164.307 1623.04 164.307H1646.94Z" fill="#80EEC0"/>
</svg>
